<?xml version="1.0" encoding="UTF-8"?>
<svg version="1.1" xmlns="http://www.w3.org/2000/svg" width="512" height="512">
<path d="M0 0 C1.01790619 0.00215515 2.03581238 0.0043103 3.08456421 0.00653076 C17.69363523 0.05620146 32.02575853 0.30709809 46.375 3.3125 C47.34985352 3.51117676 48.32470703 3.70985352 49.32910156 3.91455078 C97.7109774 14.03517194 141.69928269 35.9516877 177.375 70.3125 C178.3640332 71.26068604 178.3640332 71.26068604 179.37304688 72.22802734 C188.86130305 81.37247479 197.6012044 90.66984009 205.375 101.3125 C206.23306152 102.46355017 207.09113451 103.61459177 207.94921875 104.765625 C213.98736829 112.95680614 219.34595521 121.47054105 224.375 130.3125 C224.73948242 130.94430176 225.10396484 131.57610352 225.47949219 132.22705078 C247.08534998 169.97532572 256.85198095 212.74189997 256.6875 255.9375 C256.68534485 256.95540619 256.6831897 257.97331238 256.68096924 259.02206421 C256.63129854 273.63113523 256.38040191 287.96325853 253.375 302.3125 C253.07698486 303.77478027 253.07698486 303.77478027 252.77294922 305.26660156 C242.65232806 353.6484774 220.7358123 397.63678269 186.375 433.3125 C185.74287598 433.97185547 185.11075195 434.63121094 184.45947266 435.31054688 C175.31502521 444.79880305 166.01765991 453.5387044 155.375 461.3125 C154.22394983 462.17056152 153.07290823 463.02863451 151.921875 463.88671875 C143.73224019 469.92427396 135.22961724 475.30707302 126.375 480.3125 C125.66778809 480.7146875 124.96057617 481.116875 124.23193359 481.53125 C101.09654164 494.5566741 75.92537591 503.30551461 49.9375 508.625 C49.21860596 508.77235596 48.49971191 508.91971191 47.7590332 509.0715332 C33.08339502 511.86090125 18.55831162 512.66142619 3.64770508 512.62817383 C0.70811513 512.6250221 -2.2304558 512.64854926 -5.16992188 512.67382812 C-18.54306192 512.71848737 -31.43916711 511.51301542 -44.625 509.3125 C-46.33055054 509.03031616 -46.33055054 509.03031616 -48.07055664 508.74243164 C-91.33802759 500.97044532 -132.38793216 480.98345309 -165.625 452.3125 C-166.37007813 451.67828125 -167.11515625 451.0440625 -167.8828125 450.390625 C-181.38779833 438.57948485 -194.05918743 425.82889772 -204.625 411.3125 C-205.48149066 410.16255169 -206.33826433 409.01281411 -207.1953125 407.86328125 C-213.23534209 399.67315742 -218.61867614 391.16870382 -223.625 382.3125 C-224.0271875 381.60528809 -224.429375 380.89807617 -224.84375 380.16943359 C-237.8691741 357.03404164 -246.61801461 331.86287591 -251.9375 305.875 C-252.08485596 305.15610596 -252.23221191 304.43721191 -252.3840332 303.6965332 C-255.35789088 288.05024391 -255.99800362 272.57681954 -255.9375 256.6875 C-255.93534485 255.66959381 -255.9331897 254.65168762 -255.93096924 253.60293579 C-255.88129854 238.99386477 -255.63040191 224.66174147 -252.625 210.3125 C-252.42632324 209.33764648 -252.22764648 208.36279297 -252.02294922 207.35839844 C-241.90232806 158.9765226 -219.9858123 114.98821731 -185.625 79.3125 C-184.99287598 78.65314453 -184.36075195 77.99378906 -183.70947266 77.31445312 C-174.56502521 67.82619695 -165.26765991 59.0862956 -154.625 51.3125 C-153.47394983 50.45443848 -152.32290823 49.59636549 -151.171875 48.73828125 C-142.98224019 42.70072604 -134.47961724 37.31792698 -125.625 32.3125 C-124.91778809 31.9103125 -124.21057617 31.508125 -123.48193359 31.09375 C-100.34654164 18.0683259 -75.17537591 9.31948539 -49.1875 4 C-48.46860596 3.85264404 -47.74971191 3.70528809 -47.0090332 3.5534668 C-31.36274391 0.57960912 -15.88931954 -0.06050362 0 0 Z " fill="#FD173D" transform="translate(255.625,-0.3125)"/>
<path d="M0 0 C1.01790619 0.00215515 2.03581238 0.0043103 3.08456421 0.00653076 C17.69363523 0.05620146 32.02575853 0.30709809 46.375 3.3125 C47.34985352 3.51117676 48.32470703 3.70985352 49.32910156 3.91455078 C97.7109774 14.03517194 141.69928269 35.9516877 177.375 70.3125 C178.3640332 71.26068604 178.3640332 71.26068604 179.37304688 72.22802734 C188.86130305 81.37247479 197.6012044 90.66984009 205.375 101.3125 C206.23306152 102.46355017 207.09113451 103.61459177 207.94921875 104.765625 C213.98736829 112.95680614 219.34595521 121.47054105 224.375 130.3125 C224.73948242 130.94430176 225.10396484 131.57610352 225.47949219 132.22705078 C247.08534998 169.97532572 256.85198095 212.74189997 256.6875 255.9375 C256.68534485 256.95540619 256.6831897 257.97331238 256.68096924 259.02206421 C256.63129854 273.63113523 256.38040191 287.96325853 253.375 302.3125 C253.07698486 303.77478027 253.07698486 303.77478027 252.77294922 305.26660156 C242.65232806 353.6484774 220.7358123 397.63678269 186.375 433.3125 C185.74287598 433.97185547 185.11075195 434.63121094 184.45947266 435.31054688 C175.31502521 444.79880305 166.01765991 453.5387044 155.375 461.3125 C154.22394983 462.17056152 153.07290823 463.02863451 151.921875 463.88671875 C143.73224019 469.92427396 135.22961724 475.30707302 126.375 480.3125 C125.66778809 480.7146875 124.96057617 481.116875 124.23193359 481.53125 C101.09654164 494.5566741 75.92537591 503.30551461 49.9375 508.625 C49.21860596 508.77235596 48.49971191 508.91971191 47.7590332 509.0715332 C33.08339502 511.86090125 18.55831162 512.66142619 3.64770508 512.62817383 C0.70811513 512.6250221 -2.2304558 512.64854926 -5.16992188 512.67382812 C-18.54306192 512.71848737 -31.43916711 511.51301542 -44.625 509.3125 C-46.33055054 509.03031616 -46.33055054 509.03031616 -48.07055664 508.74243164 C-91.33802759 500.97044532 -132.38793216 480.98345309 -165.625 452.3125 C-166.37007813 451.67828125 -167.11515625 451.0440625 -167.8828125 450.390625 C-181.38779833 438.57948485 -194.05918743 425.82889772 -204.625 411.3125 C-205.48149066 410.16255169 -206.33826433 409.01281411 -207.1953125 407.86328125 C-213.23534209 399.67315742 -218.61867614 391.16870382 -223.625 382.3125 C-224.0271875 381.60528809 -224.429375 380.89807617 -224.84375 380.16943359 C-237.8691741 357.03404164 -246.61801461 331.86287591 -251.9375 305.875 C-252.08485596 305.15610596 -252.23221191 304.43721191 -252.3840332 303.6965332 C-255.35789088 288.05024391 -255.99800362 272.57681954 -255.9375 256.6875 C-255.93534485 255.66959381 -255.9331897 254.65168762 -255.93096924 253.60293579 C-255.88129854 238.99386477 -255.63040191 224.66174147 -252.625 210.3125 C-252.42632324 209.33764648 -252.22764648 208.36279297 -252.02294922 207.35839844 C-241.90232806 158.9765226 -219.9858123 114.98821731 -185.625 79.3125 C-184.99287598 78.65314453 -184.36075195 77.99378906 -183.70947266 77.31445312 C-174.56502521 67.82619695 -165.26765991 59.0862956 -154.625 51.3125 C-153.47394983 50.45443848 -152.32290823 49.59636549 -151.171875 48.73828125 C-142.98224019 42.70072604 -134.47961724 37.31792698 -125.625 32.3125 C-124.91778809 31.9103125 -124.21057617 31.508125 -123.48193359 31.09375 C-100.34654164 18.0683259 -75.17537591 9.31948539 -49.1875 4 C-48.46860596 3.85264404 -47.74971191 3.70528809 -47.0090332 3.5534668 C-31.36274391 0.57960912 -15.88931954 -0.06050362 0 0 Z M-138.625 132.3125 C-168.78816815 167.53988195 -185.07815702 209.70105283 -185.0625 256.0625 C-185.06323517 257.01037384 -185.06397034 257.95824768 -185.06472778 258.93484497 C-185.01791612 281.96303094 -181.35661139 302.91658716 -172.625 324.3125 C-172.28984375 325.13943359 -171.9546875 325.96636719 -171.609375 326.81835938 C-156.93525249 362.43595897 -132.48323755 390.90406814 -100.625 412.3125 C-100.04314941 412.70356934 -99.46129883 413.09463867 -98.86181641 413.49755859 C-73.80857509 430.11181336 -41.78161651 441.35616178 -11.60546875 441.515625 C-10.74802567 441.52132507 -9.89058258 441.52702515 -9.00715637 441.53289795 C-7.19431778 441.54230787 -5.3814624 441.54886591 -3.56860352 441.55273438 C-0.85856187 441.56233679 1.85068607 441.59335488 4.56054688 441.625 C32.03428147 441.79163205 59.19962821 435.17606247 83.48779297 422.30908203 C85.25534743 421.37568523 87.03548907 420.46623485 88.81640625 419.55859375 C128.89777659 398.77030179 158.23786103 362.98978302 174.375 321.3125 C174.63877441 320.63823975 174.90254883 319.96397949 175.17431641 319.26928711 C176.97892162 314.57398233 178.50503631 309.8390653 179.875 305 C180.07480469 304.33677734 180.27460938 303.67355469 180.48046875 302.99023438 C184.62544354 288.35081704 185.87698442 273.44828723 185.76611328 258.29589844 C185.74996055 255.68111409 185.76611688 253.06786466 185.78515625 250.453125 C185.79868014 239.4226161 184.6679179 229.09359548 182.375 218.3125 C182.20194336 217.4349707 182.02888672 216.55744141 181.85058594 215.65332031 C172.50728299 169.06335143 142.41571062 127.7197447 103.375 101.3125 C76.17813828 83.25407508 43.52479048 71.5144134 10.6953125 71.0390625 C9.89303223 71.02653442 9.09075195 71.01400635 8.26416016 71.00109863 C-48.26715433 70.29009858 -100.14541396 89.80890496 -138.625 132.3125 Z " fill="#D3D3D3" transform="translate(255.625,-0.3125)"/>
<path d="M0 0 C0.88896973 0.63276855 0.88896973 0.63276855 1.79589844 1.27832031 C12.2941342 8.75297989 21.80463699 16.97932394 31 26 C31.60593994 26.59200195 32.21187988 27.18400391 32.83618164 27.79394531 C37.9892225 32.87884793 42.50101115 38.33024319 47 44 C48.22783203 45.51980469 48.22783203 45.51980469 49.48046875 47.0703125 C55.77435987 54.95510169 61.0681837 63.20687145 66 72 C66.4021875 72.70866211 66.804375 73.41732422 67.21875 74.14746094 C79.1320619 95.30289683 87.65633797 117.81415034 91.62792969 141.796875 C91.87941152 143.28596425 92.14342966 144.7729822 92.41894531 146.2578125 C100.02178604 187.30971998 94.2005902 232.04151993 77 270 C76.6901416 270.70817871 76.3802832 271.41635742 76.06103516 272.14599609 C64.76373587 297.90209117 48.6262209 319.99368905 29 340 C28.41436279 340.60465088 27.82872559 341.20930176 27.2253418 341.83227539 C23.5017781 345.63209306 19.65224929 349.06902075 15.4375 352.3125 C14.83526611 352.77906006 14.23303223 353.24562012 13.61254883 353.72631836 C11.74892366 355.16067747 9.87682572 356.58296686 8 358 C7.14245117 358.6487207 7.14245117 358.6487207 6.26757812 359.31054688 C-40.52078974 394.41534542 -99.42426393 409.39469703 -157.375 401.4375 C-191.06306161 396.2324164 -224.23060536 384.04163072 -252 364 C-252.59312988 363.58057129 -253.18625977 363.16114258 -253.79736328 362.72900391 C-264.69775674 354.99671872 -274.53286029 346.42504152 -284 337 C-284.57347168 336.43055664 -285.14694336 335.86111328 -285.73779297 335.27441406 C-304.78993856 316.12725923 -319.57281197 292.87362684 -330 268 C-330.3192041 267.24879883 -330.6384082 266.49759766 -330.96728516 265.72363281 C-347.91131083 225.32051851 -351.38209408 180.83339611 -343 138 C-342.81808105 137.05592285 -342.63616211 136.1118457 -342.44873047 135.13916016 C-334.01517917 92.77544985 -311.26028938 54.39545094 -281 24 C-280.43055664 23.42652832 -279.86111328 22.85305664 -279.27441406 22.26220703 C-259.51554051 2.60137809 -235.54806135 -12.07504872 -210 -23 C-209.36884277 -23.27005859 -208.73768555 -23.54011719 -208.08740234 -23.81835938 C-141.6666353 -51.64397164 -58.21466162 -42.66960211 0 0 Z M-265 58 C-295.16316815 93.22738195 -311.45315702 135.38855283 -311.4375 181.75 C-311.43823517 182.69787384 -311.43897034 183.64574768 -311.43972778 184.62234497 C-311.39291612 207.65053094 -307.73161139 228.60408716 -299 250 C-298.66484375 250.82693359 -298.3296875 251.65386719 -297.984375 252.50585938 C-283.31025249 288.12345897 -258.85823755 316.59156814 -227 338 C-226.41814941 338.39106934 -225.83629883 338.78213867 -225.23681641 339.18505859 C-200.18357509 355.79931336 -168.15661651 367.04366178 -137.98046875 367.203125 C-137.12302567 367.20882507 -136.26558258 367.21452515 -135.38215637 367.22039795 C-133.56931778 367.22980787 -131.7564624 367.23636591 -129.94360352 367.24023438 C-127.23356187 367.24983679 -124.52431393 367.28085488 -121.81445312 367.3125 C-94.34071853 367.47913205 -67.17537179 360.86356247 -42.88720703 347.99658203 C-41.11965257 347.06318523 -39.33951093 346.15373485 -37.55859375 345.24609375 C2.52277659 324.45780179 31.86286103 288.67728302 48 247 C48.26377441 246.32573975 48.52754883 245.65147949 48.79931641 244.95678711 C50.60392162 240.26148233 52.13003631 235.5265653 53.5 230.6875 C53.69980469 230.02427734 53.89960938 229.36105469 54.10546875 228.67773438 C58.25044354 214.03831704 59.50198442 199.13578723 59.39111328 183.98339844 C59.37496055 181.36861409 59.39111688 178.75536466 59.41015625 176.140625 C59.42368014 165.1101161 58.2929179 154.78109548 56 144 C55.82694336 143.1224707 55.65388672 142.24494141 55.47558594 141.34082031 C46.13228299 94.75085143 16.04071062 53.4072447 -23 27 C-50.19686172 8.94157508 -82.85020952 -2.7980866 -115.6796875 -3.2734375 C-116.48196777 -3.28596558 -117.28424805 -3.29849365 -118.11083984 -3.31140137 C-174.64215433 -4.02240142 -226.52041396 15.49640496 -265 58 Z " fill="#FEFDFE" transform="translate(382,74)"/>
<path d="M0 0 C12.37907351 1.5391388 22.00557613 10.148083 29.5 19.4375 C30.67412978 20.95257901 31.84354466 22.47138749 33 24 C34.175625 23.401875 35.35125 22.80375 36.5625 22.1875 C47.75943117 17.26766921 59.72249942 16.50239695 71.77905273 16.60888672 C73.93342595 16.62496959 76.08591724 16.60892799 78.24023438 16.58984375 C91.18150254 16.57017282 104.42989075 17.73520914 116 24 C116.66 24.33 117.32 24.66 118 25 C118.26683594 24.41734375 118.53367187 23.8346875 118.80859375 23.234375 C123.59440416 14.25901908 132.93739294 6.20561075 141.8828125 1.59375 C144.9337285 0.73814256 147.85173885 0.90940256 151 1 C155.09425714 13.02688035 157.34334059 24.54618881 152.55859375 36.81640625 C151.8363626 39.63967346 152.09530136 41.23042728 153 44 C154.7092543 46.50706203 154.7092543 46.50706203 156.8125 49 C161.29867842 54.96284538 163.3412622 60.7820271 165 68 C165.26490234 69.01392822 165.26490234 69.01392822 165.53515625 70.04833984 C167.28504883 77.42798435 167.30457051 84.76741322 167.26074219 92.30419922 C167.25001933 94.49604958 167.26069148 96.68708064 167.2734375 98.87890625 C167.29142393 115.16619228 163.91851218 128.76675189 154 142 C153.58492187 142.59167969 153.16984375 143.18335938 152.7421875 143.79296875 C140.79803439 159.42049842 120.05427321 164.32615608 102 169 C102.598125 170.093125 103.19625 171.18625 103.8125 172.3125 C108.76087522 182.3696331 109.42462792 191.99734441 109.29296875 203.07421875 C109.28994751 204.32126587 109.28692627 205.56831299 109.28381348 206.85314941 C109.26824202 211.46468507 109.22635913 216.07610178 109.1875 220.6875 C109.125625 231.020625 109.06375 241.35375 109 252 C86.56 252 64.12 252 41 252 C41 241.11 41 230.22 41 219 C38.69 219.33 36.38 219.66 34 220 C19.27258502 221.1551851 7.3862262 219.47475062 -4.54296875 210.10546875 C-11.55638055 204.09556579 -15.42974085 197.57956072 -19.58544922 189.4387207 C-24.43730834 180.01535509 -30.25994677 171.3369291 -38.8125 164.875 C-39.8953125 163.946875 -39.8953125 163.946875 -41 163 C-41 162.01 -41 161.02 -41 160 C-31.24556088 159.59852156 -23.18107778 159.46539622 -15.50390625 166.34765625 C-12.89336371 169.21586273 -10.77116782 172.40970116 -8.61328125 175.625 C-6.93975448 178.16152904 -6.93975448 178.16152904 -4.5625 181 C-3 183 -3 183 -3 185 C-2.2265625 185.3403125 -2.2265625 185.3403125 -1.4375 185.6875 C0.66098238 186.81745205 2.31336636 187.99049449 4.1875 189.4375 C13.49200329 196.05838866 24.12744379 196.12878563 35.1875 194.54296875 C37.48042772 194.09024581 39.74041698 193.59546658 42 193 C41.9071875 191.329375 41.9071875 191.329375 41.8125 189.625 C41.8266811 181.61267933 44.78952855 174.67867885 49 168 C47.92685547 167.85304688 47.92685547 167.85304688 46.83203125 167.703125 C30.47998849 165.24926089 15.55446708 160.02630161 3 149 C2.31164062 148.40574219 1.62328125 147.81148437 0.9140625 147.19921875 C-9.86485912 137.22561886 -16.36122054 122.6945034 -17.16113281 108.05004883 C-17.78458033 62.12878963 -17.78458033 62.12878963 -5.125 47.25 C-2.65347599 44.35624061 -2.65347599 44.35624061 -1.7421875 40.7734375 C-2.10881692 37.71819234 -3.02944342 34.91166975 -4 32 C-4.25583527 28.65049617 -4.2314076 25.29575209 -4.25 21.9375 C-4.270625 21.03322266 -4.29125 20.12894531 -4.3125 19.19726562 C-4.34956074 12.71626957 -3.37257557 7.05193342 -1 1 C-0.67 0.67 -0.34 0.34 0 0 Z " fill="#FEFDFE" transform="translate(184,130)"/>
</svg>
